HIERARCHY
ROOT Hips
{
	OFFSET -0.001795 -0.223333 0.028219
	CHANNELS 6 Xposition Yposition Zposition Zrotation Yrotation Xrotation 
	JOINT LeftUpLeg
	{
		OFFSET 0.069520 -0.091406 -0.006815
		CHANNELS 3 Zrotation Yrotation Xrotation
		JOINT LeftLeg
		{
			OFFSET 0.034277 -0.375199 -0.004496
			CHANNELS 3 Zrotation Yrotation Xrotation
			JOINT LeftFoot
			{
				OFFSET -0.013596 -0.397961 -0.043693
				CHANNELS 3 Zrotation Yrotation Xrotation
				JOINT LeftToe
				{
					OFFSET 0.026358 -0.055791 0.119288
					CHANNELS 3 Zrotation Yrotation Xrotation
					End Site
					{
						OFFSET 0.000000 0.000000 0.000000
					}
				}
			}
		}
	}
	JOINT RightUpLeg
	{
		OFFSET -0.067670 -0.090522 -0.004320
		CHANNELS 3 Zrotation Yrotation Xrotation
		JOINT RightLeg
		{
			OFFSET -0.038290 -0.382569 -0.008850
			CHANNELS 3 Zrotation Yrotation Xrotation
			JOINT RightFoot
			{
				OFFSET 0.015774 -0.398415 -0.042312
				CHANNELS 3 Zrotation Yrotation Xrotation
				JOINT RightToe
				{
					OFFSET -0.025372 -0.048144 0.123348
					CHANNELS 3 Zrotation Yrotation Xrotation
					End Site
					{
						OFFSET 0.000000 0.000000 0.000000
					}
				}
			}
		}
	}
	JOINT Spine
	{
		OFFSET -0.002533 0.108963 -0.026696
		CHANNELS 3 Zrotation Yrotation Xrotation
		JOINT Spine1
		{
			OFFSET 0.005487 0.135180 0.001092
			CHANNELS 3 Zrotation Yrotation Xrotation
			JOINT Spine2
			{
				OFFSET 0.001457 0.052922 0.025425
				CHANNELS 3 Zrotation Yrotation Xrotation
				JOINT Neck
				{
					OFFSET -0.002778 0.213870 -0.042857
					CHANNELS 3 Zrotation Yrotation Xrotation
					JOINT Head
					{
						OFFSET 0.005152 0.064970 0.051349
						CHANNELS 3 Zrotation Yrotation Xrotation
						End Site
						{
							OFFSET 0.000000 0.000000 0.000000
						}
					}
				}
				JOINT LeftShoulder
				{
					OFFSET 0.078845 0.121749 -0.034090
					CHANNELS 3 Zrotation Yrotation Xrotation
					JOINT LeftArm
					{
						OFFSET 0.090977 0.030469 -0.008868
						CHANNELS 3 Zrotation Yrotation Xrotation
						JOINT LeftForeArm
						{
							OFFSET 0.259612 -0.012772 -0.027456
							CHANNELS 3 Zrotation Yrotation Xrotation
							JOINT LeftHand
							{
								OFFSET 0.249234 0.008986 -0.001171
								CHANNELS 3 Zrotation Yrotation Xrotation
								End Site
								{
									OFFSET 0.000000 0.000000 0.000000
								}
							}
						}
					}
				}
				JOINT RightShoulder
				{
					OFFSET -0.081759 0.118833 -0.038615
					CHANNELS 3 Zrotation Yrotation Xrotation
					JOINT RightArm
					{
						OFFSET -0.096012 0.032551 -0.009143
						CHANNELS 3 Zrotation Yrotation Xrotation
						JOINT RightForeArm
						{
							OFFSET -0.253742 -0.013329 -0.021401
							CHANNELS 3 Zrotation Yrotation Xrotation
							JOINT RightHand
							{
								OFFSET -0.255298 0.007772 -0.005559
								CHANNELS 3 Zrotation Yrotation Xrotation
								End Site
								{
									OFFSET 0.000000 0.000000 0.000000
								}
							}
						}
					}
				}
			}
		}
	}
}
MOTION
Frames: 9
Frame Time: 0.050000
0.000000 0.964642 0.000000 -3.381389 -1.014790 1.074175 -2.102268 1.197398 10.544218 1.602821 -0.839019 13.984179 -2.198991 -0.613224 8.317435 0.000000 0.000000 0.000000 4.942714 4.278303 -29.543454 1.578242 0.394507 19.675568 -1.110547 -7.857038 14.231143 0.000000 0.000000 0.000000 6.104438 -0.999047 9.765398 -1.027519 0.905741 -28.690504 -5.695888 -4.461926 30.445241 7.986998 -3.855860 -27.313937 0.000000 0.000000 0.000000 -15.652174 -1.416636 1.109289 -59.632802 -13.025213 -3.320493 -6.510963 -31.560341 4.151599 0.000000 0.000000 0.000000 22.809155 -7.309389 -7.286385 61.511395 -1.004712 -9.211131 6.122187 28.852585 2.680399 0.000000 0.000000 0.000000 
-0.002344 0.981008 0.051447 -4.265582 -2.049555 2.294612 0.032016 0.711744 7.662035 -0.884999 -0.348882 20.805449 -3.762927 -0.387633 15.560533 0.000000 0.000000 0.000000 5.793892 4.189901 -27.470638 2.226830 0.306710 21.059635 -0.999510 -7.184975 12.034006 0.000000 0.000000 0.000000 7.827823 -1.019991 8.220168 -1.185585 0.961154 -30.817474 -5.133652 -2.971691 32.531023 6.762727 -2.941518 -28.568648 0.000000 0.000000 0.000000 -15.552599 -0.857373 0.776007 -58.871328 -11.939154 -4.178460 -9.191209 -30.078245 4.658094 0.000000 0.000000 0.000000 22.205312 -9.596688 -8.271973 62.227121 -1.501716 -9.841203 7.124899 28.357905 2.966483 0.000000 0.000000 0.000000 
-0.004323 1.000856 0.098267 -4.198885 -2.887487 1.821923 1.705407 0.154657 2.238363 -2.921451 0.414057 32.130540 -5.234937 0.548389 23.957892 0.000000 0.000000 0.000000 6.965519 3.607967 -22.550740 1.430287 0.525467 19.506141 -1.257902 -7.188602 10.089805 0.000000 0.000000 0.000000 8.743322 -1.126662 8.668689 -2.061769 1.115839 -30.548017 -4.537245 -0.683028 31.853509 6.054126 -2.229926 -28.402959 0.000000 0.000000 0.000000 -15.901783 -0.380698 0.142619 -58.590961 -9.937898 -5.185161 -10.109843 -30.340942 4.841895 0.000000 0.000000 0.000000 21.793073 -10.168289 -7.967588 61.614205 -2.989071 -10.510212 8.805599 28.139248 3.454841 0.000000 0.000000 0.000000 
-0.005358 1.015855 0.138385 -4.343522 -3.524136 0.516550 3.257401 -0.286400 -4.308141 -6.511749 2.721264 44.975457 -2.207308 5.051175 25.478351 0.000000 0.000000 0.000000 7.329368 2.815309 -17.609213 1.354745 0.480896 17.292957 -0.520933 -5.638778 9.676452 0.000000 0.000000 0.000000 9.079780 -1.278637 10.108479 -2.102248 1.138532 -31.575267 -4.239023 2.529872 32.691773 7.638353 -2.649927 -28.608018 0.000000 0.000000 0.000000 -15.129050 -0.333868 -0.412417 -58.997568 -9.176302 -5.731011 -10.161122 -30.245298 4.672485 0.000000 0.000000 0.000000 23.585448 -11.169553 -8.091336 60.088971 -1.692557 -9.768752 9.149202 27.615268 3.685154 0.000000 0.000000 0.000000 
-0.005142 1.029786 0.174177 -3.856952 -4.031794 -1.131151 4.248681 -0.564830 -11.049170 -10.111638 5.902550 54.449617 3.150945 11.164851 20.963697 0.000000 0.000000 0.000000 6.807134 1.794773 -11.941730 0.907246 0.460397 14.016820 0.278707 -4.382027 10.410784 0.000000 0.000000 0.000000 7.478527 -1.333515 12.638070 -2.051330 1.152662 -32.487179 -1.927601 4.699805 32.983011 7.361059 -2.210751 -28.368268 0.000000 0.000000 0.000000 -16.420515 -0.825202 -0.636452 -57.797746 -7.959448 -6.363656 -9.991282 -31.189351 4.645699 0.000000 0.000000 0.000000 23.646977 -11.138025 -7.431944 59.103446 -0.543991 -9.238658 8.791324 27.810377 3.780575 0.000000 0.000000 0.000000 
-0.003877 1.039042 0.207828 -2.510032 -4.424464 -1.984602 5.292162 -0.734423 -19.492091 -13.198891 9.134836 60.649050 5.521894 13.548038 13.867882 0.000000 0.000000 0.000000 5.212427 1.005631 -7.651863 0.688047 0.389463 11.263439 1.370228 -2.682169 11.324232 0.000000 0.000000 0.000000 5.873041 -1.193763 13.471565 -2.535509 1.238118 -32.406784 -0.876771 6.573537 32.932531 6.691603 -1.640034 -27.368950 0.000000 0.000000 0.000000 -17.136740 0.235405 -1.648832 -56.741142 -7.169594 -6.623314 -10.810824 -31.725243 4.817322 0.000000 0.000000 0.000000 23.285102 -11.155135 -6.884290 59.601597 0.844731 -8.686554 7.602543 28.324074 3.712970 0.000000 0.000000 0.000000 
-0.001298 1.043247 0.239810 -1.357870 -4.754694 -2.818892 6.696849 -0.569097 -27.274079 -15.961760 11.295888 60.584246 8.144422 17.357290 12.754002 0.000000 0.000000 0.000000 3.746140 0.387698 -3.583250 0.309921 0.368202 9.201832 2.358626 -0.506522 10.699872 0.000000 0.000000 0.000000 4.363250 -1.053760 14.370583 -3.036304 1.327500 -31.944649 0.724265 8.034552 32.631684 5.491091 -0.691633 -27.143115 0.000000 0.000000 0.000000 -17.790440 1.113645 -2.522999 -56.727379 -6.130661 -7.014720 -9.805561 -31.723140 4.411115 0.000000 0.000000 0.000000 21.952861 -10.734717 -6.090118 59.945041 2.469444 -7.866185 8.007525 28.760690 3.956118 0.000000 0.000000 0.000000 
0.002482 1.039853 0.270655 -0.415835 -5.011508 -3.841487 9.014718 0.134633 -32.922077 -18.157427 11.920231 56.062613 9.925543 19.918115 12.985442 0.000000 0.000000 0.000000 2.171525 -0.114802 0.609819 0.788223 0.206411 7.399410 2.397848 0.282745 9.211688 0.000000 0.000000 0.000000 3.199070 -0.946895 15.440500 -2.383615 1.224337 -32.155498 0.959716 9.565844 33.477962 4.825898 -0.184280 -25.772850 0.000000 0.000000 0.000000 -18.722674 1.247229 -3.042248 -56.336060 -5.364465 -7.361757 -8.825846 -31.214918 3.968994 0.000000 0.000000 0.000000 21.457508 -9.706761 -5.013377 59.935055 4.814467 -6.828081 6.642455 28.769698 3.716509 0.000000 0.000000 0.000000 
0.007465 1.031006 0.301215 0.169967 -5.123487 -4.907563 10.850437 0.820861 -35.215057 -18.158773 9.753753 46.070932 10.418924 20.463128 14.802231 0.000000 0.000000 0.000000 1.239542 -0.390815 3.531171 0.855242 0.215511 7.855696 1.861237 1.252493 5.341949 0.000000 0.000000 0.000000 2.105672 -0.855669 16.949857 -2.216760 1.184875 -31.454780 1.514942 10.598551 32.919811 4.853970 0.078489 -26.550616 0.000000 0.000000 0.000000 -18.994851 1.432277 -3.464265 -56.745840 -5.538642 -7.203521 -5.830731 -29.684962 2.878812 0.000000 0.000000 0.000000 21.077511 -9.359915 -4.539580 59.649488 7.313853 -5.495601 4.940574 29.515835 3.465287 0.000000 0.000000 0.000000 
